<?xml version="1.0" encoding="utf-8"?>
<!-- Generator: Adobe Illustrator 21.1.0, SVG Export Plug-In . SVG Version: 6.00 Build 0)  -->
<svg version="1.1" id="Слой_1" xmlns="http://www.w3.org/2000/svg" xmlns:xlink="http://www.w3.org/1999/xlink" x="0px" y="0px"
	 viewBox="0 0 24 24" style="enable-background:new 0 0 24 24;" xml:space="preserve">
<path d="M4.5,6C4,6,3.7,6.3,3.7,6.7S4,7.5,4.5,7.5s0.8-0.3,0.8-0.8S4.8,6,4.5,6z M7.9,6C7.6,6,7.3,6.3,7.3,6.7s0.3,0.8,0.6,0.8
	c0.3,0,0.8-0.3,0.8-0.8S8.3,6,7.9,6z M6.2,0.3C3,0.3,0.4,2.9,0.4,6.1s2.6,5.8,5.8,5.8S12,9.3,12,6.1S9.4,0.3,6.2,0.3z M6.2,10.7
	c-2.6,0-4.6-2.1-4.6-4.6c0-0.2,0-0.3,0-0.5C3,5,4,4,4.7,2.6C5.7,4.1,7.4,5,9.4,5c0.5,0,0.9,0,1.4-0.2c0.2,0.5,0.2,0.9,0.2,1.4
	C10.8,8.7,8.8,10.7,6.2,10.7z"/>
<path d="M16.4,5.7c-0.5,0-0.8,0.3-0.8,0.8s0.3,0.8,0.8,0.8s0.8-0.3,0.8-0.8S16.7,5.7,16.4,5.7z M19.8,5.7c-0.3,0-0.6,0.3-0.6,0.8
	s0.3,0.8,0.6,0.8s0.8-0.3,0.8-0.8S20.3,5.7,19.8,5.7z M18.1,0c-3.3,0-5.9,2.6-5.9,5.9s2.6,5.9,5.9,5.9S24,9.1,24,5.9S21.4,0,18.1,0z
	 M18.1,10.5c-2.6,0-4.6-2.2-4.6-4.6c0-0.2,0-0.3,0-0.5c1.4-0.6,2.5-1.7,3.1-3.1c1.1,1.5,2.8,2.5,4.8,2.5c0.5,0,0.9,0,1.4-0.2
	c0.2,0.5,0.2,0.9,0.2,1.4C22.8,8.5,20.7,10.5,18.1,10.5z"/>
<path d="M4.3,18c-0.5,0-0.8,0.3-0.8,0.8s0.3,0.8,0.8,0.8S5,19.2,5,18.7S4.6,18,4.3,18z M7.7,18C7.4,18,7,18.3,7,18.7
	s0.3,0.8,0.6,0.8c0.3,0,0.8-0.3,0.8-0.8S8.1,18,7.7,18z M6,12.2c-3.3,0-5.9,2.6-5.9,5.9S2.7,24,6,24s5.9-2.6,5.9-5.9
	S9.2,12.2,6,12.2z M6,22.8c-2.6,0-4.6-2.2-4.6-4.6c0-0.2,0-0.3,0-0.5c1.4-0.6,2.5-1.7,3.1-3.1C5.5,16.1,7.2,17,9.2,17
	c0.5,0,0.9,0,1.4-0.2c0.2,0.5,0.2,0.9,0.2,1.4C10.6,20.7,8.6,22.8,6,22.8z"/>
<path d="M16.4,18c-0.5,0-0.8,0.3-0.8,0.8s0.3,0.8,0.8,0.8s0.8-0.3,0.8-0.8S16.7,18,16.4,18z M19.8,18c-0.3,0-0.6,0.3-0.6,0.8
	s0.3,0.8,0.6,0.8s0.8-0.3,0.8-0.8S20.3,18,19.8,18z M18.1,12.2c-3.3,0-5.9,2.6-5.9,5.9s2.6,5.9,5.9,5.9s5.9-2.6,5.9-5.9
	S21.4,12.2,18.1,12.2z M18.1,22.8c-2.6,0-4.6-2.2-4.6-4.6c0-0.2,0-0.3,0-0.5c1.4-0.6,2.5-1.7,3.1-3.1c1.1,1.5,2.8,2.5,4.8,2.5
	c0.5,0,0.9,0,1.4-0.2c0.2,0.5,0.2,0.9,0.2,1.4C22.8,20.7,20.7,22.8,18.1,22.8z"/>
</svg>
