<?xml version="1.0" encoding="utf-8"?>
<!-- Generator: Adobe Illustrator 21.1.0, SVG Export Plug-In . SVG Version: 6.00 Build 0)  -->
<svg version="1.1" id="Слой_1" xmlns="http://www.w3.org/2000/svg" xmlns:xlink="http://www.w3.org/1999/xlink" x="0px" y="0px"
	 viewBox="0 0 24 24" style="enable-background:new 0 0 24 24;" xml:space="preserve">
<path d="M2.7,4C2.4,4,2.2,4.2,2.2,4.5S2.4,5,2.7,5s0.5-0.2,0.5-0.5S2.9,4,2.7,4z M4.9,4C4.7,4,4.5,4.2,4.5,4.5S4.7,5,4.9,5
	s0.5-0.2,0.5-0.5S5.2,4,4.9,4z M3.8,0.3C1.7,0.3,0,2,0,4.1s1.7,3.8,3.8,3.8s3.8-1.7,3.8-3.8S5.9,0.3,3.8,0.3z M3.8,7.1
	c-1.7,0-3-1.4-3-3c0-0.1,0-0.2,0-0.3c0.9-0.4,1.6-1.1,2-2c0.7,1,1.8,1.6,3.1,1.6c0.3,0,0.6,0,0.9-0.1c0.1,0.3,0.1,0.6,0.1,0.9
	C6.8,5.8,5.5,7.1,3.8,7.1z"/>
<path d="M10.9,4c-0.3,0-0.5,0.2-0.5,0.5S10.6,5,10.9,5c0.3,0,0.5-0.2,0.5-0.5S11.1,4,10.9,4z M13.1,4c-0.3,0-0.5,0.2-0.5,0.5
	S12.9,5,13.1,5c0.3,0,0.5-0.2,0.5-0.5S13.4,4,13.1,4z M12,0.3C9.9,0.3,8.2,2,8.2,4.1S9.9,7.9,12,7.9s3.8-1.7,3.8-3.8
	S14.1,0.3,12,0.3z M12,7.1c-1.7,0-3-1.4-3-3C9,4,9,3.9,9,3.8c0.9-0.4,1.6-1.1,2-2c0.7,1,1.8,1.6,3.1,1.6c0.3,0,0.6,0,0.9-0.1
	C15,3.5,15,3.8,15,4.1C15,5.8,13.7,7.1,12,7.1z"/>
<path d="M19.1,4c-0.3,0-0.5,0.2-0.5,0.5S18.8,5,19.1,5s0.5-0.2,0.5-0.5S19.3,4,19.1,4z M21.3,4c-0.3,0-0.5,0.2-0.5,0.5
	S21.1,5,21.3,5c0.3,0,0.5-0.2,0.5-0.5S21.6,4,21.3,4z M20.2,0.3c-2.1,0-3.8,1.7-3.8,3.8s1.7,3.8,3.8,3.8S24,6.2,24,4.1
	S22.3,0.3,20.2,0.3z M20.2,7.1c-1.7,0-3-1.4-3-3c0-0.1,0-0.2,0-0.3c0.9-0.4,1.6-1.1,2-2c0.7,1,1.8,1.6,3.1,1.6c0.3,0,0.6,0,0.9-0.1
	c0.1,0.3,0.1,0.6,0.1,0.9C23.2,5.8,21.9,7.1,20.2,7.1z"/>
<path d="M2.7,12c-0.3,0-0.5,0.2-0.5,0.5c0,0.3,0.2,0.5,0.5,0.5s0.5-0.2,0.5-0.5C3.1,12.2,2.9,12,2.7,12z M4.9,12
	c-0.3,0-0.5,0.2-0.5,0.5c0,0.3,0.2,0.5,0.5,0.5s0.5-0.2,0.5-0.5C5.4,12.2,5.2,12,4.9,12z M3.8,8.3C1.7,8.3,0,10,0,12.1
	s1.7,3.8,3.8,3.8s3.8-1.7,3.8-3.8S5.9,8.3,3.8,8.3z M3.8,15.1c-1.7,0-3-1.4-3-3c0-0.1,0-0.2,0-0.3c0.9-0.4,1.6-1.1,2-2
	c0.7,1,1.8,1.6,3.1,1.6c0.3,0,0.6,0,0.9-0.1c0.1,0.3,0.1,0.6,0.1,0.9C6.8,13.7,5.5,15.1,3.8,15.1z"/>
<path d="M10.9,12c-0.3,0-0.5,0.2-0.5,0.5c0,0.3,0.2,0.5,0.5,0.5c0.3,0,0.5-0.2,0.5-0.5C11.3,12.2,11.1,12,10.9,12z M13.1,12
	c-0.3,0-0.5,0.2-0.5,0.5c0,0.3,0.2,0.5,0.5,0.5c0.3,0,0.5-0.2,0.5-0.5C13.6,12.2,13.4,12,13.1,12z M12,8.3c-2.1,0-3.8,1.7-3.8,3.8
	s1.7,3.8,3.8,3.8s3.8-1.7,3.8-3.8S14.1,8.3,12,8.3z M12,15.1c-1.7,0-3-1.4-3-3c0-0.1,0-0.2,0-0.3c0.9-0.4,1.6-1.1,2-2
	c0.7,1,1.8,1.6,3.1,1.6c0.3,0,0.6,0,0.9-0.1c0.1,0.3,0.1,0.6,0.1,0.9C15,13.7,13.7,15.1,12,15.1z"/>
<path d="M19.1,12c-0.3,0-0.5,0.2-0.5,0.5c0,0.3,0.2,0.5,0.5,0.5s0.5-0.2,0.5-0.5C19.5,12.2,19.3,12,19.1,12z M21.3,12
	c-0.3,0-0.5,0.2-0.5,0.5c0,0.3,0.2,0.5,0.5,0.5c0.3,0,0.5-0.2,0.5-0.5C21.8,12.2,21.6,12,21.3,12z M20.2,8.3c-2.1,0-3.8,1.7-3.8,3.8
	s1.7,3.8,3.8,3.8s3.8-1.7,3.8-3.8S22.3,8.3,20.2,8.3z M20.2,15.1c-1.7,0-3-1.4-3-3c0-0.1,0-0.2,0-0.3c0.9-0.4,1.6-1.1,2-2
	c0.7,1,1.8,1.6,3.1,1.6c0.3,0,0.6,0,0.9-0.1c0.1,0.3,0.1,0.6,0.1,0.9C23.2,13.7,21.9,15.1,20.2,15.1z"/>
<path d="M2.7,19.9c-0.3,0-0.5,0.2-0.5,0.5c0,0.3,0.2,0.5,0.5,0.5s0.5-0.2,0.5-0.5C3.1,20.1,2.9,19.9,2.7,19.9z M4.9,19.9
	c-0.3,0-0.5,0.2-0.5,0.5c0,0.3,0.2,0.5,0.5,0.5s0.5-0.2,0.5-0.5C5.4,20.1,5.2,19.9,4.9,19.9z M3.8,16.2C1.7,16.2,0,17.9,0,20
	s1.7,3.8,3.8,3.8s3.8-1.7,3.8-3.8S5.9,16.2,3.8,16.2z M3.8,23c-1.7,0-3-1.4-3-3c0-0.1,0-0.2,0-0.3c0.9-0.4,1.6-1.1,2-2
	c0.7,1,1.8,1.6,3.1,1.6c0.3,0,0.6,0,0.9-0.1c0.1,0.3,0.1,0.6,0.1,0.9C6.8,21.7,5.5,23,3.8,23z"/>
<path d="M10.9,19.9c-0.3,0-0.5,0.2-0.5,0.5c0,0.3,0.2,0.5,0.5,0.5c0.3,0,0.5-0.2,0.5-0.5C11.3,20.1,11.1,19.9,10.9,19.9z M13.1,19.9
	c-0.3,0-0.5,0.2-0.5,0.5c0,0.3,0.2,0.5,0.5,0.5c0.3,0,0.5-0.2,0.5-0.5C13.6,20.1,13.4,19.9,13.1,19.9z M12,16.2
	c-2.1,0-3.8,1.7-3.8,3.8s1.7,3.8,3.8,3.8s3.8-1.7,3.8-3.8S14.1,16.2,12,16.2z M12,23c-1.7,0-3-1.4-3-3c0-0.1,0-0.2,0-0.3
	c0.9-0.4,1.6-1.1,2-2c0.7,1,1.8,1.6,3.1,1.6c0.3,0,0.6,0,0.9-0.1C15,19.4,15,19.7,15,20C15,21.7,13.7,23,12,23z"/>
<path d="M19.1,19.9c-0.3,0-0.5,0.2-0.5,0.5c0,0.3,0.2,0.5,0.5,0.5s0.5-0.2,0.5-0.5C19.5,20.1,19.3,19.9,19.1,19.9z M21.3,19.9
	c-0.3,0-0.5,0.2-0.5,0.5c0,0.3,0.2,0.5,0.5,0.5c0.3,0,0.5-0.2,0.5-0.5C21.8,20.1,21.6,19.9,21.3,19.9z M20.2,16.2
	c-2.1,0-3.8,1.7-3.8,3.8s1.7,3.8,3.8,3.8S24,22.1,24,20S22.3,16.2,20.2,16.2z M20.2,23c-1.7,0-3-1.4-3-3c0-0.1,0-0.2,0-0.3
	c0.9-0.4,1.6-1.1,2-2c0.7,1,1.8,1.6,3.1,1.6c0.3,0,0.6,0,0.9-0.1c0.1,0.3,0.1,0.6,0.1,0.9C23.2,21.7,21.9,23,20.2,23z"/>
</svg>
